<svg xmlns="http://www.w3.org/2000/svg" width="18.353" height="13" viewBox="0 0 18.353 13">
  <g id="_8-Email" data-name="8-Email" transform="translate(0 -7)">
    <path id="Path_66" data-name="Path 66" d="M17.206,7H1.147A1.147,1.147,0,0,0,0,8.147V18.853A1.147,1.147,0,0,0,1.147,20H17.206a1.147,1.147,0,0,0,1.147-1.147V8.147A1.147,1.147,0,0,0,17.206,7Zm-.245.765L9.177,13.783,1.392,7.765ZM.765,18.7V8.246L6.657,12.8Zm.539.539,5.961-5.961,1.675,1.3a.382.382,0,0,0,.466,0l1.682-1.3,5.961,5.961ZM17.588,18.7,11.7,12.8l5.892-4.554Z" transform="translate(0)" fill="#fff"/>
  </g>
</svg>
