<svg xmlns="http://www.w3.org/2000/svg" width="22.009" height="22.047" viewBox="0 0 22.009 22.047">
  <path id="Phone" d="M14.44,4.811A4.764,4.764,0,0,1,18.2,8.575M14.44,1a8.576,8.576,0,0,1,7.575,7.566m-.953,7.6v2.859a1.906,1.906,0,0,1-2.077,1.906,18.857,18.857,0,0,1-8.223-2.925,18.581,18.581,0,0,1-5.717-5.717A18.857,18.857,0,0,1,2.12,4.03a1.906,1.906,0,0,1,1.9-2.077H6.874A1.906,1.906,0,0,1,8.78,3.592a12.235,12.235,0,0,0,.667,2.678A1.906,1.906,0,0,1,9.018,8.28L7.808,9.49a15.246,15.246,0,0,0,5.717,5.717L14.735,14a1.906,1.906,0,0,1,2.011-.429,12.235,12.235,0,0,0,2.678.667,1.906,1.906,0,0,1,1.639,1.934Z" transform="translate(-1.111 0.104)" fill="#fff" stroke="#edeeec" stroke-linecap="round" stroke-linejoin="round" stroke-width="2"/>
</svg>
